<svg xmlns="http://www.w3.org/2000/svg" xmlns:xlink="http://www.w3.org/1999/xlink" viewBox="0 0 267.02 129.63"><defs><style>.cls-1,.cls-7{fill:none;stroke-linecap:round;}.cls-1,.cls-4{stroke:#fff;}.cls-1{stroke-linejoin:round;stroke-width:2px;}.cls-2{clip-path:url(#clip-path);}.cls-3{fill:#f4a62d;}.cls-4{fill:#008dcb;}.cls-4,.cls-7,.cls-9{stroke-miterlimit:10;}.cls-5{fill:#231815;}.cls-6{clip-path:url(#clip-path-2);}.cls-7,.cls-9{stroke:#231815;}.cls-8,.cls-9{fill:#fff;}.cls-10{clip-path:url(#clip-path-3);}</style><clipPath id="clip-path"><path class="cls-1" d="M289.78-27.48s2.18-10,10.66-14c18.2-8.57,16.42-32.12,16.42-32.12s1.78-23.56-16.42-32.13c-8.48-4-10.61-14.15-10.61-14.15h-171s-1.93,10.16-10.4,14.15C90.21-97.12,92-73.56,92-73.56S90.21-50,108.42-41.44c8.47,4,10.35,14,10.35,14h171"/></clipPath><clipPath id="clip-path-2"><path class="cls-1" d="M218.3,109.19s2.18-10,10.66-14c18.2-8.57,16.42-32.13,16.42-32.13S247.16,39.55,229,31c-8.48-4-10.61-14.15-10.61-14.15h-171S45.42,27,36.94,31C18.74,39.55,20.52,63.1,20.52,63.1S18.74,86.66,36.94,95.23c8.48,4,10.35,14,10.35,14h171"/></clipPath><clipPath id="clip-path-3"><path class="cls-1" d="M13.11-20.95s2.18-10,10.66-14C42-43.48,40.19-67,40.19-67S42-90.59,23.77-99.16c-8.48-4-10.61-14.15-10.61-14.15h-171s-1.93,10.17-10.4,14.15C-186.46-90.59-184.67-67-184.67-67s-1.79,23.55,16.42,32.12c8.47,4,10.35,14,10.35,14h171"/></clipPath></defs><g id="圖層_2" data-name="圖層 2"><g class="cls-2"><polygon class="cls-3" points="207.91 -67.81 33.18 1.9 207.54 -68.74 207.91 -67.81"/><polygon class="cls-3" points="211.08 -60.78 51.11 38.21 210.55 -61.63 211.08 -60.78"/><polygon class="cls-3" points="215.42 -54.41 75.07 70.86 214.75 -55.15 215.42 -54.41"/><polygon class="cls-3" points="220.8 -48.88 104.33 98.85 220.02 -49.5 220.8 -48.88"/><polygon class="cls-3" points="227.06 -44.38 138.02 121.34 226.18 -44.85 227.06 -44.38"/><polygon class="cls-3" points="234.01 -41.03 175.09 137.63 233.06 -41.34 234.01 -41.03"/><polygon class="cls-3" points="241.43 -38.94 214.43 147.24 240.44 -39.08 241.43 -38.94"/><polygon class="cls-3" points="249.1 -38.17 254.84 149.87 248.1 -38.14 249.1 -38.17"/><polygon class="cls-3" points="256.79 -38.74 295.1 145.44 255.81 -38.54 256.79 -38.74"/><polygon class="cls-3" points="264.27 -40.64 333.97 134.09 263.34 -40.27 264.27 -40.64"/><ellipse class="cls-4" cx="111.76" cy="-12.27" rx="17.81" ry="16.77"/><ellipse class="cls-4" cx="111.76" cy="-12.27" rx="13.35" ry="12.58"/><ellipse class="cls-4" cx="147.7" cy="-12.27" rx="17.81" ry="16.77"/><ellipse class="cls-4" cx="147.7" cy="-12.27" rx="13.35" ry="12.58"/><ellipse class="cls-4" cx="183.63" cy="-12.27" rx="17.81" ry="16.77"/><ellipse class="cls-4" cx="183.63" cy="-12.27" rx="13.35" ry="12.58"/><ellipse class="cls-4" cx="219.57" cy="-12.27" rx="17.81" ry="16.77"/><ellipse class="cls-4" cx="219.57" cy="-12.27" rx="13.35" ry="12.58"/><ellipse class="cls-4" cx="255.51" cy="-12.27" rx="17.81" ry="16.77"/><ellipse class="cls-4" cx="255.51" cy="-12.27" rx="13.35" ry="12.58"/><ellipse class="cls-4" cx="148.1" cy="-12.34" rx="17.81" ry="16.77"/><ellipse class="cls-4" cx="148.1" cy="-12.34" rx="13.35" ry="12.58"/><ellipse class="cls-4" cx="184.04" cy="-12.34" rx="17.81" ry="16.77"/><ellipse class="cls-4" cx="184.04" cy="-12.34" rx="13.35" ry="12.58"/><ellipse class="cls-4" cx="219.97" cy="-12.34" rx="17.81" ry="16.77"/><ellipse class="cls-4" cx="219.97" cy="-12.34" rx="13.35" ry="12.58"/><ellipse class="cls-4" cx="255.91" cy="-12.34" rx="17.81" ry="16.77"/><ellipse class="cls-4" cx="255.91" cy="-12.34" rx="13.35" ry="12.58"/></g><path class="cls-1" d="M289.78-27.48s2.18-10,10.66-14c18.2-8.57,16.42-32.12,16.42-32.12s1.78-23.56-16.42-32.13c-8.48-4-10.61-14.15-10.61-14.15h-171s-1.93,10.16-10.4,14.15C90.21-97.12,92-73.56,92-73.56S90.21-50,108.42-41.44c8.47,4,10.35,14,10.35,14h171"/><path class="cls-5" d="M40.38,115H225.85s2-12.7,11.23-17c19.74-9.29,17.81-34.84,17.81-34.84s1.93-25.54-17.81-34.83c-9.19-4.33-11.23-17-11.23-17H40.05s-2,12.71-11.23,17C9.08,37.56,11,63.1,11,63.1S9.08,88.65,28.82,97.94c9.19,4.33,11.23,17,11.23,17h.33Z"/><g class="cls-6"><path class="cls-7" d="M218.3,109.19s2.18-10,10.66-14c18.2-8.57,16.42-32.13,16.42-32.13S247.16,39.55,229,31c-8.48-4-10.61-14.15-10.61-14.15h-171S45.42,27,36.94,31C18.74,39.55,20.52,63.1,20.52,63.1S18.74,86.66,36.94,95.23c8.48,4,10.35,14,10.35,14h171"/><polygon class="cls-8" points="207.19 88.51 332.46 228.87 206.44 89.18 207.19 88.51"/><polygon class="cls-8" points="136.82 38.6 -41.84 -20.31 137.13 37.65 136.82 38.6"/><polygon class="cls-8" points="134.73 46.02 -51.45 19.03 134.87 45.03 134.73 46.02"/><polygon class="cls-8" points="133.96 53.7 -54.08 59.44 133.93 52.7 133.96 53.7"/><polygon class="cls-8" points="134.53 61.39 -49.65 99.69 134.33 60.41 134.53 61.39"/><polygon class="cls-8" points="136.43 68.86 -38.3 138.57 136.06 67.93 136.43 68.86"/><polygon class="cls-8" points="139.6 75.89 -20.37 174.88 139.07 75.04 139.6 75.89"/><polygon class="cls-8" points="143.94 82.26 3.59 207.53 143.28 81.52 143.94 82.26"/><polygon class="cls-8" points="149.33 87.78 32.86 235.52 148.54 87.17 149.33 87.78"/><polygon class="cls-8" points="155.59 92.29 66.54 258 154.7 91.82 155.59 92.29"/><polygon class="cls-8" points="162.53 95.64 103.61 274.3 161.58 95.33 162.53 95.64"/><polygon class="cls-8" points="169.95 97.73 142.95 283.9 168.96 97.59 169.95 97.73"/><polygon class="cls-8" points="177.63 98.5 183.37 286.54 176.63 98.53 177.63 98.5"/><polygon class="cls-8" points="185.31 97.92 223.62 282.11 184.34 98.13 185.31 97.92"/><polygon class="cls-8" points="192.79 96.02 262.5 270.76 191.86 96.4 192.79 96.02"/><polygon class="cls-8" points="199.82 92.86 298.81 252.83 198.97 93.38 199.82 92.86"/><polygon class="cls-8" points="211.71 83.13 359.45 199.6 211.09 83.92 211.71 83.13"/><polygon class="cls-8" points="216.22 76.87 381.93 165.92 215.74 77.75 216.22 76.87"/><polygon class="cls-8" points="219.56 69.93 398.22 128.84 219.25 70.88 219.56 69.93"/><polygon class="cls-8" points="221.65 62.51 407.83 89.5 221.51 63.49 221.65 62.51"/><polygon class="cls-8" points="222.43 54.83 410.46 49.09 222.46 55.83 222.43 54.83"/><polygon class="cls-8" points="221.85 47.14 406.04 8.84 222.06 48.12 221.85 47.14"/><polygon class="cls-8" points="219.95 39.67 394.69 -30.04 220.32 40.6 219.95 39.67"/><polygon class="cls-8" points="216.78 32.64 376.76 -66.35 217.31 33.49 216.78 32.64"/><polygon class="cls-8" points="212.44 26.27 352.8 -99 213.11 27.01 212.44 26.27"/><polygon class="cls-8" points="207.06 20.75 323.53 -126.99 207.85 21.36 207.06 20.75"/><polygon class="cls-8" points="200.8 16.24 289.85 -149.47 201.68 16.71 200.8 16.24"/><polygon class="cls-8" points="193.85 12.89 252.77 -165.77 194.81 13.21 193.85 12.89"/><polygon class="cls-8" points="186.43 10.8 213.43 -175.37 187.42 10.95 186.43 10.8"/><polygon class="cls-8" points="178.76 10.03 173.02 -178 179.76 10 178.76 10.03"/><polygon class="cls-8" points="171.07 10.61 132.76 -173.58 172.05 10.4 171.07 10.61"/><polygon class="cls-8" points="163.6 12.51 93.89 -162.23 164.53 12.13 163.6 12.51"/><polygon class="cls-8" points="156.57 15.68 57.58 -144.3 157.42 15.15 156.57 15.68"/><polygon class="cls-8" points="150.2 20.02 24.93 -120.34 150.94 19.35 150.2 20.02"/><polygon class="cls-8" points="144.67 25.4 -3.06 -91.07 145.29 24.61 144.67 25.4"/><polygon class="cls-8" points="140.17 31.66 -25.55 -57.39 140.64 30.77 140.17 31.66"/><ellipse class="cls-9" cx="57.19" cy="94.91" rx="17.81" ry="16.77"/><ellipse class="cls-9" cx="57.19" cy="94.91" rx="13.35" ry="12.58"/><ellipse class="cls-9" cx="57.19" cy="94.91" rx="10.02" ry="9.44"/><ellipse class="cls-9" cx="57.19" cy="94.91" rx="7.51" ry="7.08"/><ellipse class="cls-9" cx="57.19" cy="94.91" rx="5.63" ry="5.31"/><ellipse class="cls-9" cx="93.12" cy="94.91" rx="17.81" ry="16.77"/><ellipse class="cls-9" cx="93.12" cy="94.91" rx="13.35" ry="12.58"/><ellipse class="cls-9" cx="93.12" cy="94.91" rx="10.02" ry="9.44"/><ellipse class="cls-9" cx="93.12" cy="94.91" rx="7.51" ry="7.08"/><ellipse class="cls-9" cx="93.12" cy="94.91" rx="5.63" ry="5.31"/><ellipse class="cls-9" cx="129.06" cy="94.91" rx="17.81" ry="16.77"/><ellipse class="cls-9" cx="129.06" cy="94.91" rx="13.35" ry="12.58"/><ellipse class="cls-9" cx="129.06" cy="94.91" rx="10.02" ry="9.44"/><ellipse class="cls-9" cx="129.06" cy="94.91" rx="7.51" ry="7.08"/><ellipse class="cls-9" cx="129.06" cy="94.91" rx="5.63" ry="5.31"/><ellipse class="cls-9" cx="164.99" cy="94.91" rx="17.81" ry="16.77"/><ellipse class="cls-9" cx="164.99" cy="94.91" rx="13.35" ry="12.58"/><ellipse class="cls-9" cx="164.99" cy="94.91" rx="10.02" ry="9.44"/><ellipse class="cls-9" cx="164.99" cy="94.91" rx="7.51" ry="7.08"/><ellipse class="cls-9" cx="164.99" cy="94.91" rx="5.63" ry="5.31"/><ellipse class="cls-9" cx="200.93" cy="94.91" rx="17.81" ry="16.77"/><ellipse class="cls-9" cx="200.93" cy="94.91" rx="13.35" ry="12.58"/><ellipse class="cls-9" cx="200.93" cy="94.91" rx="10.02" ry="9.44"/><ellipse class="cls-9" cx="200.93" cy="94.91" rx="7.51" ry="7.08"/><ellipse class="cls-9" cx="200.93" cy="94.91" rx="5.63" ry="5.31"/><path class="cls-9" d="M148.55,84.2a3,3,0,0,0,.17-2.25,3.37,3.37,0,0,0-4.34-2,3.68,3.68,0,0,0-1.92,1.39,3.59,3.59,0,0,0-3.57-.75,3.65,3.65,0,0,0-2.32,2.16,3.65,3.65,0,0,0-3-.34A3.51,3.51,0,0,0,131,85.59a3.63,3.63,0,0,0-2.94-.27,3.39,3.39,0,0,0-2.39,4.13A3,3,0,0,0,126.86,91a7.43,7.43,0,0,0-1.22,6.39c1.56,4.84,9,6.79,16.51,4.36S154.58,93.43,153,88.59A7.36,7.36,0,0,0,148.55,84.2Z"/><ellipse class="cls-9" cx="39.29" cy="105.88" rx="17.81" ry="16.77"/><ellipse class="cls-9" cx="39.29" cy="105.88" rx="13.35" ry="12.58"/><ellipse class="cls-9" cx="39.29" cy="105.88" rx="10.02" ry="9.44"/><ellipse class="cls-9" cx="39.29" cy="105.88" rx="7.51" ry="7.08"/><ellipse class="cls-9" cx="39.29" cy="105.88" rx="5.63" ry="5.31"/><ellipse class="cls-9" cx="75.22" cy="105.88" rx="17.81" ry="16.77"/><ellipse class="cls-9" cx="75.22" cy="105.88" rx="13.35" ry="12.58"/><ellipse class="cls-9" cx="75.22" cy="105.88" rx="10.02" ry="9.44"/><ellipse class="cls-9" cx="75.22" cy="105.88" rx="7.51" ry="7.08"/><ellipse class="cls-9" cx="75.22" cy="105.88" rx="5.63" ry="5.31"/><ellipse class="cls-9" cx="111.16" cy="105.88" rx="17.81" ry="16.77"/><ellipse class="cls-9" cx="111.16" cy="105.88" rx="13.35" ry="12.58"/><ellipse class="cls-9" cx="111.16" cy="105.88" rx="10.02" ry="9.44"/><ellipse class="cls-9" cx="111.16" cy="105.88" rx="7.51" ry="7.08"/><ellipse class="cls-9" cx="111.16" cy="105.88" rx="5.63" ry="5.31"/><ellipse class="cls-9" cx="147.09" cy="105.88" rx="17.81" ry="16.77"/><ellipse class="cls-9" cx="147.09" cy="105.88" rx="13.35" ry="12.58"/><ellipse class="cls-9" cx="147.09" cy="105.88" rx="10.02" ry="9.44"/><ellipse class="cls-9" cx="147.09" cy="105.88" rx="7.51" ry="7.08"/><ellipse class="cls-9" cx="147.09" cy="105.88" rx="5.63" ry="5.31"/><ellipse class="cls-9" cx="183.03" cy="105.88" rx="17.81" ry="16.77"/><ellipse class="cls-9" cx="183.03" cy="105.88" rx="13.35" ry="12.58"/><ellipse class="cls-9" cx="183.03" cy="105.88" rx="10.02" ry="9.44"/><ellipse class="cls-9" cx="183.03" cy="105.88" rx="7.51" ry="7.08"/><ellipse class="cls-9" cx="183.03" cy="105.88" rx="5.63" ry="5.31"/><ellipse class="cls-9" cx="218.83" cy="105.88" rx="17.81" ry="16.77"/><ellipse class="cls-9" cx="218.83" cy="105.88" rx="13.35" ry="12.58"/><ellipse class="cls-9" cx="218.83" cy="105.88" rx="10.02" ry="9.44"/><ellipse class="cls-9" cx="218.83" cy="105.88" rx="7.51" ry="7.08"/><ellipse class="cls-9" cx="218.83" cy="105.88" rx="5.63" ry="5.31"/><path class="cls-9" d="M63.48,81.46l-7.94,9.61a1.74,1.74,0,0,1-.89.57L41.59,95.13a1.74,1.74,0,0,0-1.29,1.78l.42,7.36a1.73,1.73,0,0,0,1.71,1.63l11.87.15a1.74,1.74,0,0,1,1.34.67l7.65,9.81a1.74,1.74,0,0,0,2.32.39l6.65-4.37a1.72,1.72,0,0,0,.69-2l-3.43-10.23a1.72,1.72,0,0,1,0-1.12l4.18-12a1.72,1.72,0,0,0-.79-2.08l-7.26-4.06A1.72,1.72,0,0,0,63.48,81.46Z"/><ellipse class="cls-9" cx="58.19" cy="113.43" rx="17.81" ry="16.77"/><ellipse class="cls-9" cx="58.19" cy="113.43" rx="13.35" ry="12.58"/><ellipse class="cls-9" cx="58.19" cy="113.43" rx="10.02" ry="9.44"/><ellipse class="cls-9" cx="58.19" cy="113.43" rx="7.51" ry="7.08"/><ellipse class="cls-9" cx="58.19" cy="113.43" rx="5.63" ry="5.31"/><ellipse class="cls-9" cx="94.12" cy="113.43" rx="17.81" ry="16.77"/><ellipse class="cls-9" cx="94.12" cy="113.43" rx="13.35" ry="12.58"/><ellipse class="cls-9" cx="94.12" cy="113.43" rx="10.02" ry="9.44"/><ellipse class="cls-9" cx="94.12" cy="113.43" rx="7.51" ry="7.08"/><ellipse class="cls-9" cx="94.12" cy="113.43" rx="5.63" ry="5.31"/><ellipse class="cls-9" cx="130.06" cy="113.43" rx="17.81" ry="16.77"/><ellipse class="cls-9" cx="130.06" cy="113.43" rx="13.35" ry="12.58"/><ellipse class="cls-9" cx="130.06" cy="113.43" rx="10.02" ry="9.44"/><ellipse class="cls-9" cx="130.06" cy="113.43" rx="7.51" ry="7.08"/><ellipse class="cls-9" cx="130.06" cy="113.43" rx="5.63" ry="5.31"/><ellipse class="cls-9" cx="165.99" cy="113.43" rx="17.81" ry="16.77"/><ellipse class="cls-9" cx="165.99" cy="113.43" rx="13.35" ry="12.58"/><ellipse class="cls-9" cx="165.99" cy="113.43" rx="10.02" ry="9.44"/><ellipse class="cls-9" cx="165.99" cy="113.43" rx="7.51" ry="7.08"/><ellipse class="cls-9" cx="165.99" cy="113.43" rx="5.63" ry="5.31"/><ellipse class="cls-9" cx="201.93" cy="113.43" rx="17.81" ry="16.77"/><ellipse class="cls-9" cx="201.93" cy="113.43" rx="13.35" ry="12.58"/><ellipse class="cls-9" cx="201.93" cy="113.43" rx="10.02" ry="9.44"/><ellipse class="cls-9" cx="201.93" cy="113.43" rx="7.51" ry="7.08"/><ellipse class="cls-9" cx="201.93" cy="113.43" rx="5.63" ry="5.31"/><ellipse class="cls-9" cx="40.29" cy="124.39" rx="17.81" ry="16.77"/><ellipse class="cls-9" cx="40.29" cy="124.39" rx="13.35" ry="12.58"/><ellipse class="cls-9" cx="40.29" cy="124.39" rx="10.02" ry="9.44"/><ellipse class="cls-9" cx="40.29" cy="124.39" rx="7.51" ry="7.08"/><ellipse class="cls-9" cx="40.29" cy="124.39" rx="5.63" ry="5.31"/><ellipse class="cls-9" cx="76.22" cy="124.39" rx="17.81" ry="16.77"/><ellipse class="cls-9" cx="76.22" cy="124.39" rx="13.35" ry="12.58"/><ellipse class="cls-9" cx="76.22" cy="124.39" rx="10.02" ry="9.44"/><ellipse class="cls-9" cx="76.22" cy="124.39" rx="7.51" ry="7.08"/><ellipse class="cls-9" cx="76.22" cy="124.39" rx="5.63" ry="5.31"/><ellipse class="cls-9" cx="112.16" cy="124.39" rx="17.81" ry="16.77"/><ellipse class="cls-9" cx="112.16" cy="124.39" rx="13.35" ry="12.58"/><ellipse class="cls-9" cx="112.16" cy="124.39" rx="10.02" ry="9.44"/><ellipse class="cls-9" cx="112.16" cy="124.39" rx="7.51" ry="7.08"/><ellipse class="cls-9" cx="112.16" cy="124.39" rx="5.63" ry="5.31"/><ellipse class="cls-9" cx="148.09" cy="124.39" rx="17.81" ry="16.77"/><ellipse class="cls-9" cx="148.09" cy="124.39" rx="13.35" ry="12.58"/><ellipse class="cls-9" cx="148.09" cy="124.39" rx="10.02" ry="9.44"/><ellipse class="cls-9" cx="148.09" cy="124.39" rx="7.51" ry="7.08"/><ellipse class="cls-9" cx="148.09" cy="124.39" rx="5.63" ry="5.31"/><ellipse class="cls-9" cx="184.03" cy="124.39" rx="17.81" ry="16.77"/><ellipse class="cls-9" cx="184.03" cy="124.39" rx="13.35" ry="12.58"/><ellipse class="cls-9" cx="184.03" cy="124.39" rx="10.02" ry="9.44"/><ellipse class="cls-9" cx="184.03" cy="124.39" rx="7.51" ry="7.08"/><ellipse class="cls-9" cx="184.03" cy="124.39" rx="5.63" ry="5.31"/><ellipse class="cls-9" cx="219.83" cy="124.39" rx="17.81" ry="16.77"/><ellipse class="cls-9" cx="219.83" cy="124.39" rx="13.35" ry="12.58"/><ellipse class="cls-9" cx="219.83" cy="124.39" rx="10.02" ry="9.44"/><ellipse class="cls-9" cx="219.83" cy="124.39" rx="7.51" ry="7.08"/><ellipse class="cls-9" cx="219.83" cy="124.39" rx="5.63" ry="5.31"/><path class="cls-9" d="M239.45,106.22s-9.67-25.59-15.6-30c-1.19-.88-4.38-1-8.72-.66l-11.89-7.93-.1,0-2-3.47c5.46-7.34,9-19.39,4-30.43-5.48-12.12-13.54-16.9-17.79-18.1s-14.77.38-20,1.87c-10.06,2.86-15.93,12.89-15.29,22.47.34,5.16,3,7.5,1.56,12.8-1.1,4.13-3.92,7.32-2.5,9.36.68,1,1.68.75,3.43,2.19a10.79,10.79,0,0,1,2.81,3.74c5.92,11.54,6.2,12,6.87,12.49,2.38,1.77,5.93,1.3,10-.16l-.71,2.82-5.4,1.28-4.55-4.18-.8.86-17.07-17-.47.41-.94-1L139.5,67.7l.94,1.07-.52.45.62.64L139,71.24,155.23,88a9.22,9.22,0,0,0-.4,1.19l-1.77-1.59s-2.09-.21-3,2.89c1,.94,2.21,2.09,3.28,3.13a.14.14,0,0,1,0,.06c-.5,2.56-3.08.2-2.7,4.4s-4.3-.1-4,4.8c2.84,4.12,10.86,10.55,10.86,10.55l4.13-5.71Z"/><ellipse class="cls-9" cx="94.53" cy="113.36" rx="17.81" ry="16.77"/><ellipse class="cls-9" cx="94.53" cy="113.36" rx="13.35" ry="12.58"/><ellipse class="cls-9" cx="94.53" cy="113.36" rx="10.02" ry="9.44"/><ellipse class="cls-9" cx="94.53" cy="113.36" rx="7.51" ry="7.08"/><ellipse class="cls-9" cx="94.53" cy="113.36" rx="5.63" ry="5.31"/><ellipse class="cls-9" cx="130.46" cy="113.36" rx="17.81" ry="16.77"/><ellipse class="cls-9" cx="130.46" cy="113.36" rx="13.35" ry="12.58"/><ellipse class="cls-9" cx="130.46" cy="113.36" rx="10.02" ry="9.44"/><ellipse class="cls-9" cx="130.46" cy="113.36" rx="7.51" ry="7.08"/><ellipse class="cls-9" cx="130.46" cy="113.36" rx="5.63" ry="5.31"/><ellipse class="cls-9" cx="166.4" cy="113.36" rx="17.81" ry="16.77"/><ellipse class="cls-9" cx="166.4" cy="113.36" rx="13.35" ry="12.58"/><ellipse class="cls-9" cx="166.4" cy="113.36" rx="10.02" ry="9.44"/><ellipse class="cls-9" cx="166.4" cy="113.36" rx="7.51" ry="7.08"/><ellipse class="cls-9" cx="166.4" cy="113.36" rx="5.63" ry="5.31"/><ellipse class="cls-9" cx="202.33" cy="113.36" rx="17.81" ry="16.77"/><ellipse class="cls-9" cx="202.33" cy="113.36" rx="13.35" ry="12.58"/><ellipse class="cls-9" cx="202.33" cy="113.36" rx="10.02" ry="9.44"/><ellipse class="cls-9" cx="202.33" cy="113.36" rx="7.51" ry="7.08"/><ellipse class="cls-9" cx="202.33" cy="113.36" rx="5.63" ry="5.31"/><ellipse class="cls-9" cx="238.27" cy="113.36" rx="17.81" ry="16.77"/><ellipse class="cls-9" cx="238.27" cy="113.36" rx="13.35" ry="12.58"/><ellipse class="cls-9" cx="238.27" cy="113.36" rx="10.02" ry="9.44"/><ellipse class="cls-9" cx="238.27" cy="113.36" rx="7.51" ry="7.08"/><ellipse class="cls-9" cx="238.27" cy="113.36" rx="5.63" ry="5.31"/><ellipse class="cls-9" cx="76.62" cy="124.33" rx="17.81" ry="16.77"/><ellipse class="cls-9" cx="76.62" cy="124.33" rx="13.35" ry="12.58"/><ellipse class="cls-9" cx="76.62" cy="124.33" rx="10.02" ry="9.44"/><ellipse class="cls-9" cx="76.62" cy="124.33" rx="7.51" ry="7.08"/><ellipse class="cls-9" cx="76.62" cy="124.33" rx="5.63" ry="5.31"/><ellipse class="cls-9" cx="112.56" cy="124.33" rx="17.81" ry="16.77"/><ellipse class="cls-9" cx="112.56" cy="124.33" rx="13.35" ry="12.58"/><ellipse class="cls-9" cx="112.56" cy="124.33" rx="10.02" ry="9.44"/><ellipse class="cls-9" cx="112.56" cy="124.33" rx="7.51" ry="7.08"/><ellipse class="cls-9" cx="112.56" cy="124.33" rx="5.63" ry="5.31"/><ellipse class="cls-9" cx="148.49" cy="124.33" rx="17.81" ry="16.77"/><ellipse class="cls-9" cx="148.49" cy="124.33" rx="13.35" ry="12.58"/><ellipse class="cls-9" cx="148.49" cy="124.33" rx="10.02" ry="9.44"/><ellipse class="cls-9" cx="148.49" cy="124.33" rx="7.51" ry="7.08"/><ellipse class="cls-9" cx="148.49" cy="124.33" rx="5.63" ry="5.31"/><ellipse class="cls-9" cx="184.43" cy="124.33" rx="17.81" ry="16.77"/><ellipse class="cls-9" cx="184.43" cy="124.33" rx="13.35" ry="12.58"/><ellipse class="cls-9" cx="184.43" cy="124.33" rx="10.02" ry="9.44"/><ellipse class="cls-9" cx="184.43" cy="124.33" rx="7.51" ry="7.08"/><ellipse class="cls-9" cx="184.43" cy="124.33" rx="5.63" ry="5.31"/><ellipse class="cls-9" cx="220.37" cy="124.33" rx="17.81" ry="16.77"/><ellipse class="cls-9" cx="220.37" cy="124.33" rx="13.35" ry="12.58"/><ellipse class="cls-9" cx="220.37" cy="124.33" rx="10.02" ry="9.44"/><ellipse class="cls-9" cx="220.37" cy="124.33" rx="7.51" ry="7.08"/><ellipse class="cls-9" cx="220.37" cy="124.33" rx="5.63" ry="5.31"/><ellipse class="cls-9" cx="256.17" cy="124.33" rx="17.81" ry="16.77"/><ellipse class="cls-9" cx="256.17" cy="124.33" rx="13.35" ry="12.58"/><ellipse class="cls-9" cx="256.17" cy="124.33" rx="10.02" ry="9.44"/><ellipse class="cls-9" cx="256.17" cy="124.33" rx="7.51" ry="7.08"/><ellipse class="cls-9" cx="256.17" cy="124.33" rx="5.63" ry="5.31"/></g><path class="cls-1" d="M218.3,109.19s2.18-10,10.66-14c18.2-8.57,16.42-32.13,16.42-32.13S247.16,39.55,229,31c-8.48-4-10.61-14.15-10.61-14.15h-171S45.42,27,36.94,31C18.74,39.55,20.52,63.1,20.52,63.1S18.74,86.66,36.94,95.23c8.48,4,10.35,14,10.35,14h171"/><g class="cls-10"><polygon class="cls-3" points="2 -41.62 127.26 98.73 1.25 -40.95 2 -41.62"/><polygon class="cls-3" points="-19.88 -32.21 18.43 151.97 -20.86 -32.01 -19.88 -32.21"/><polygon class="cls-3" points="-12.4 -34.11 57.3 140.62 -13.33 -33.74 -12.4 -34.11"/><polygon class="cls-3" points="-5.38 -37.28 93.61 122.69 -6.22 -36.75 -5.38 -37.28"/><polygon class="cls-3" points="6.52 -47 154.25 69.47 5.9 -46.22 6.52 -47"/><polygon class="cls-3" points="11.02 -53.26 176.74 35.78 10.55 -52.38 11.02 -53.26"/><ellipse class="cls-4" cx="-3.26" cy="-16.71" rx="17.81" ry="16.77"/><ellipse class="cls-4" cx="14.64" cy="-5.74" rx="17.81" ry="16.77"/><ellipse class="cls-4" cx="14.64" cy="-5.74" rx="13.35" ry="12.58"/><ellipse class="cls-4" cx="14.64" cy="-5.74" rx="10.02" ry="9.44"/><ellipse class="cls-4" cx="14.64" cy="-5.74" rx="7.51" ry="7.08"/><ellipse class="cls-4" cx="14.64" cy="-5.74" rx="5.63" ry="5.31"/><ellipse class="cls-4" cx="-2.86" cy="-16.77" rx="17.81" ry="16.77"/><ellipse class="cls-4" cx="33.08" cy="-16.77" rx="17.81" ry="16.77"/><ellipse class="cls-4" cx="15.17" cy="-5.81" rx="17.81" ry="16.77"/><ellipse class="cls-4" cx="15.17" cy="-5.81" rx="13.35" ry="12.58"/><ellipse class="cls-4" cx="15.17" cy="-5.81" rx="10.02" ry="9.44"/><ellipse class="cls-4" cx="15.17" cy="-5.81" rx="7.51" ry="7.08"/><ellipse class="cls-4" cx="15.17" cy="-5.81" rx="5.63" ry="5.31"/><ellipse class="cls-4" cx="50.98" cy="-5.81" rx="17.81" ry="16.77"/><ellipse class="cls-4" cx="50.98" cy="-5.81" rx="13.35" ry="12.58"/><ellipse class="cls-4" cx="50.98" cy="-5.81" rx="10.02" ry="9.44"/><ellipse class="cls-4" cx="50.98" cy="-5.81" rx="7.51" ry="7.08"/><ellipse class="cls-4" cx="50.98" cy="-5.81" rx="5.63" ry="5.31"/></g><path class="cls-1" d="M13.11-20.95s2.18-10,10.66-14C42-43.48,40.19-67,40.19-67S42-90.59,23.77-99.16c-8.48-4-10.61-14.15-10.61-14.15h-171s-1.93,10.17-10.4,14.15C-186.46-90.59-184.67-67-184.67-67s-1.79,23.55,16.42,32.12c8.47,4,10.35,14,10.35,14h171"/></g></svg>