<svg xmlns="http://www.w3.org/2000/svg" xmlns:xlink="http://www.w3.org/1999/xlink" viewBox="0 0 267.02 129.63"><defs><style>.cls-1,.cls-7{fill:none;stroke-linecap:round;}.cls-1,.cls-4,.cls-9{stroke:#fff;}.cls-1{stroke-linejoin:round;stroke-width:2px;}.cls-2{clip-path:url(#clip-path);}.cls-3,.cls-9{fill:#f4a62d;}.cls-4{fill:#008dcb;}.cls-4,.cls-7,.cls-8,.cls-9{stroke-miterlimit:10;}.cls-5{fill:#e8473c;}.cls-6{clip-path:url(#clip-path-2);}.cls-7{stroke:#231815;}.cls-8{fill:#fff;stroke:#f4a62d;}.cls-10{clip-path:url(#clip-path-3);}</style><clipPath id="clip-path"><path class="cls-1" d="M289.78-27.48s2.18-10,10.66-14c18.2-8.57,16.42-32.12,16.42-32.12s1.78-23.56-16.42-32.13c-8.48-4-10.61-14.15-10.61-14.15h-171s-1.93,10.16-10.4,14.15C90.21-97.12,92-73.56,92-73.56S90.21-50,108.42-41.44c8.47,4,10.35,14,10.35,14h171"/></clipPath><clipPath id="clip-path-2"><path class="cls-1" d="M225.6,110.9s2.19-10,10.66-14c18.21-8.57,16.42-32.12,16.42-32.12s1.79-23.56-16.42-32.13c-8.47-4-10.61-14.15-10.61-14.15h-171S52.72,28.7,44.24,32.69C26,41.26,27.82,64.82,27.82,64.82S26,88.37,44.24,96.94c8.48,4,10.35,14,10.35,14h171"/></clipPath><clipPath id="clip-path-3"><path class="cls-1" d="M13.11-20.95s2.18-10,10.66-14C42-43.48,40.19-67,40.19-67S42-90.59,23.77-99.16c-8.48-4-10.61-14.15-10.61-14.15h-171s-1.93,10.17-10.4,14.15C-186.46-90.59-184.67-67-184.67-67s-1.79,23.55,16.42,32.12c8.47,4,10.35,14,10.35,14h171"/></clipPath></defs><g id="圖層_2" data-name="圖層 2"><g class="cls-2"><polygon class="cls-3" points="207.91 -67.81 33.18 1.9 207.54 -68.74 207.91 -67.81"/><polygon class="cls-3" points="211.08 -60.78 51.11 38.21 210.55 -61.63 211.08 -60.78"/><polygon class="cls-3" points="215.42 -54.41 75.07 70.86 214.75 -55.15 215.42 -54.41"/><polygon class="cls-3" points="220.8 -48.88 104.33 98.85 220.02 -49.5 220.8 -48.88"/><polygon class="cls-3" points="227.06 -44.38 138.02 121.34 226.18 -44.85 227.06 -44.38"/><polygon class="cls-3" points="234.01 -41.03 175.09 137.63 233.06 -41.34 234.01 -41.03"/><polygon class="cls-3" points="241.43 -38.94 214.43 147.24 240.44 -39.08 241.43 -38.94"/><polygon class="cls-3" points="249.1 -38.17 254.84 149.87 248.1 -38.14 249.1 -38.17"/><polygon class="cls-3" points="256.79 -38.74 295.1 145.44 255.81 -38.54 256.79 -38.74"/><polygon class="cls-3" points="264.27 -40.64 333.97 134.09 263.34 -40.27 264.27 -40.64"/><ellipse class="cls-4" cx="111.76" cy="-12.27" rx="17.81" ry="16.77"/><ellipse class="cls-4" cx="111.76" cy="-12.27" rx="13.35" ry="12.58"/><ellipse class="cls-4" cx="147.7" cy="-12.27" rx="17.81" ry="16.77"/><ellipse class="cls-4" cx="147.7" cy="-12.27" rx="13.35" ry="12.58"/><ellipse class="cls-4" cx="183.63" cy="-12.27" rx="17.81" ry="16.77"/><ellipse class="cls-4" cx="183.63" cy="-12.27" rx="13.35" ry="12.58"/><ellipse class="cls-4" cx="219.57" cy="-12.27" rx="17.81" ry="16.77"/><ellipse class="cls-4" cx="219.57" cy="-12.27" rx="13.35" ry="12.58"/><ellipse class="cls-4" cx="255.51" cy="-12.27" rx="17.81" ry="16.77"/><ellipse class="cls-4" cx="255.51" cy="-12.27" rx="13.35" ry="12.58"/><ellipse class="cls-4" cx="148.1" cy="-12.34" rx="17.81" ry="16.77"/><ellipse class="cls-4" cx="148.1" cy="-12.34" rx="13.35" ry="12.58"/><ellipse class="cls-4" cx="184.04" cy="-12.34" rx="17.81" ry="16.77"/><ellipse class="cls-4" cx="184.04" cy="-12.34" rx="13.35" ry="12.58"/><ellipse class="cls-4" cx="219.97" cy="-12.34" rx="17.81" ry="16.77"/><ellipse class="cls-4" cx="219.97" cy="-12.34" rx="13.35" ry="12.58"/><ellipse class="cls-4" cx="255.91" cy="-12.34" rx="17.81" ry="16.77"/><ellipse class="cls-4" cx="255.91" cy="-12.34" rx="13.35" ry="12.58"/></g><path class="cls-1" d="M289.78-27.48s2.18-10,10.66-14c18.2-8.57,16.42-32.12,16.42-32.12s1.78-23.56-16.42-32.13c-8.48-4-10.61-14.15-10.61-14.15h-171s-1.93,10.16-10.4,14.15C90.21-97.12,92-73.56,92-73.56S90.21-50,108.42-41.44c8.47,4,10.35,14,10.35,14h171"/><path class="cls-5" d="M47.68,116.69H233.16s2-12.71,11.22-17c19.74-9.29,17.81-34.83,17.81-34.83S264.12,39.27,244.38,30c-9.19-4.33-11.22-17-11.22-17H47.35s-2,12.71-11.23,17c-19.74,9.29-17.8,34.84-17.8,34.84s-1.94,25.54,17.8,34.83c9.2,4.33,11.23,17,11.23,17h.33Z"/><g class="cls-6"><path class="cls-7" d="M225.6,110.9s2.19-10,10.66-14c18.21-8.57,16.42-32.12,16.42-32.12s1.79-23.56-16.42-32.13c-8.47-4-10.61-14.15-10.61-14.15h-171S52.72,28.7,44.24,32.69C26,41.26,27.82,64.82,27.82,64.82S26,88.37,44.24,96.94c8.48,4,10.35,14,10.35,14h171"/><polygon class="cls-3" points="214.49 90.23 339.76 230.58 213.75 90.89 214.49 90.23"/><polygon class="cls-3" points="144.12 40.31 -34.54 -18.6 144.44 39.37 144.12 40.31"/><polygon class="cls-3" points="142.03 47.74 -44.15 20.74 142.17 46.75 142.03 47.74"/><polygon class="cls-3" points="141.26 55.41 -46.77 61.15 141.23 54.41 141.26 55.41"/><polygon class="cls-3" points="141.84 63.1 -42.35 101.41 141.63 62.12 141.84 63.1"/><polygon class="cls-3" points="143.74 70.57 -31 140.28 143.36 69.64 143.74 70.57"/><polygon class="cls-3" points="146.91 77.6 -13.07 176.59 146.38 76.75 146.91 77.6"/><polygon class="cls-3" points="151.25 83.97 10.89 209.24 150.58 83.23 151.25 83.97"/><polygon class="cls-3" points="156.63 89.5 40.16 237.23 155.84 88.88 156.63 89.5"/><polygon class="cls-3" points="162.89 94 73.84 259.71 162 93.53 162.89 94"/><polygon class="cls-3" points="169.83 97.35 110.92 276.01 168.88 97.04 169.83 97.35"/><polygon class="cls-3" points="177.25 99.44 150.26 285.62 176.26 99.3 177.25 99.44"/><polygon class="cls-3" points="184.93 100.21 190.67 288.25 183.93 100.24 184.93 100.21"/><polygon class="cls-3" points="192.62 99.64 230.92 283.82 191.64 99.84 192.62 99.64"/><polygon class="cls-3" points="200.09 97.74 269.8 272.47 199.16 98.11 200.09 97.74"/><polygon class="cls-3" points="207.12 94.57 306.11 254.54 206.27 95.1 207.12 94.57"/><polygon class="cls-3" points="219.01 84.84 366.75 201.31 218.4 85.63 219.01 84.84"/><polygon class="cls-3" points="223.52 78.58 389.23 167.63 223.05 79.47 223.52 78.58"/><polygon class="cls-3" points="226.87 71.64 405.53 130.56 226.55 72.59 226.87 71.64"/><polygon class="cls-3" points="228.96 64.22 415.13 91.22 228.81 65.21 228.96 64.22"/><polygon class="cls-3" points="229.73 56.55 417.76 50.8 229.76 57.54 229.73 56.55"/><polygon class="cls-3" points="229.15 48.86 413.34 10.55 229.36 49.83 229.15 48.86"/><polygon class="cls-3" points="227.25 41.38 401.99 -28.32 227.63 42.31 227.25 41.38"/><polygon class="cls-3" points="224.09 34.35 384.06 -64.64 224.61 35.2 224.09 34.35"/><polygon class="cls-3" points="219.74 27.98 360.1 -97.29 220.41 28.73 219.74 27.98"/><polygon class="cls-3" points="214.36 22.46 330.83 -125.28 215.15 23.07 214.36 22.46"/><polygon class="cls-3" points="208.1 17.95 297.15 -147.76 208.99 18.43 208.1 17.95"/><polygon class="cls-3" points="201.16 14.61 260.07 -164.05 202.11 14.92 201.16 14.61"/><polygon class="cls-3" points="193.74 12.52 220.73 -173.66 194.72 12.66 193.74 12.52"/><polygon class="cls-3" points="186.06 11.74 180.32 -176.29 187.06 11.71 186.06 11.74"/><polygon class="cls-3" points="178.37 12.32 140.07 -171.87 179.35 12.11 178.37 12.32"/><polygon class="cls-3" points="170.9 14.22 101.19 -160.52 171.83 13.85 170.9 14.22"/><polygon class="cls-3" points="163.87 17.39 64.88 -142.59 164.72 16.86 163.87 17.39"/><polygon class="cls-3" points="157.5 21.73 32.23 -118.63 158.24 21.06 157.5 21.73"/><polygon class="cls-3" points="151.98 27.11 4.24 -89.36 152.59 26.32 151.98 27.11"/><polygon class="cls-3" points="147.47 33.37 -18.24 -55.68 147.94 32.49 147.47 33.37"/><ellipse class="cls-8" cx="64.49" cy="96.62" rx="17.81" ry="16.77"/><ellipse class="cls-8" cx="64.49" cy="96.62" rx="13.35" ry="12.58"/><ellipse class="cls-8" cx="64.49" cy="96.62" rx="10.02" ry="9.44"/><ellipse class="cls-8" cx="64.49" cy="96.62" rx="7.51" ry="7.08"/><ellipse class="cls-8" cx="64.49" cy="96.62" rx="5.63" ry="5.31"/><ellipse class="cls-8" cx="100.43" cy="96.62" rx="17.81" ry="16.77"/><ellipse class="cls-8" cx="100.43" cy="96.62" rx="13.35" ry="12.58"/><ellipse class="cls-8" cx="100.43" cy="96.62" rx="10.02" ry="9.44"/><ellipse class="cls-8" cx="100.43" cy="96.62" rx="7.51" ry="7.08"/><ellipse class="cls-8" cx="100.43" cy="96.62" rx="5.63" ry="5.31"/><ellipse class="cls-8" cx="136.36" cy="96.62" rx="17.81" ry="16.77"/><ellipse class="cls-8" cx="136.36" cy="96.62" rx="13.35" ry="12.58"/><ellipse class="cls-8" cx="136.36" cy="96.62" rx="10.02" ry="9.44"/><ellipse class="cls-8" cx="136.36" cy="96.62" rx="7.51" ry="7.08"/><ellipse class="cls-8" cx="136.36" cy="96.62" rx="5.63" ry="5.31"/><ellipse class="cls-8" cx="172.3" cy="96.62" rx="17.81" ry="16.77"/><ellipse class="cls-8" cx="172.3" cy="96.62" rx="13.35" ry="12.58"/><ellipse class="cls-8" cx="172.3" cy="96.62" rx="10.02" ry="9.44"/><ellipse class="cls-8" cx="172.3" cy="96.62" rx="7.51" ry="7.08"/><ellipse class="cls-8" cx="172.3" cy="96.62" rx="5.63" ry="5.31"/><ellipse class="cls-8" cx="208.23" cy="96.62" rx="17.81" ry="16.77"/><ellipse class="cls-8" cx="208.23" cy="96.62" rx="13.35" ry="12.58"/><ellipse class="cls-8" cx="208.23" cy="96.62" rx="10.02" ry="9.44"/><ellipse class="cls-8" cx="208.23" cy="96.62" rx="7.51" ry="7.08"/><ellipse class="cls-8" cx="208.23" cy="96.62" rx="5.63" ry="5.31"/><path class="cls-9" d="M155.85,85.91a3,3,0,0,0,.17-2.25,3.38,3.38,0,0,0-4.34-2,3.78,3.78,0,0,0-1.92,1.39,3.56,3.56,0,0,0-3.57-.74,3.61,3.61,0,0,0-2.32,2.15,3.65,3.65,0,0,0-3.05-.34,3.51,3.51,0,0,0-2.52,3.15,3.71,3.71,0,0,0-2.94-.27A3.37,3.37,0,0,0,133,91.16a2.94,2.94,0,0,0,1.18,1.56,7.46,7.46,0,0,0-1.22,6.39c1.56,4.84,8.95,6.79,16.51,4.36s12.43-8.33,10.87-13.16A7.35,7.35,0,0,0,155.85,85.91Z"/><ellipse class="cls-8" cx="46.59" cy="107.59" rx="17.81" ry="16.77"/><ellipse class="cls-8" cx="46.59" cy="107.59" rx="13.35" ry="12.58"/><ellipse class="cls-8" cx="46.59" cy="107.59" rx="10.02" ry="9.44"/><ellipse class="cls-8" cx="46.59" cy="107.59" rx="7.51" ry="7.08"/><ellipse class="cls-8" cx="46.59" cy="107.59" rx="5.63" ry="5.31"/><ellipse class="cls-8" cx="82.52" cy="107.59" rx="17.81" ry="16.77"/><ellipse class="cls-8" cx="82.52" cy="107.59" rx="13.35" ry="12.58"/><ellipse class="cls-8" cx="82.52" cy="107.59" rx="10.02" ry="9.44"/><ellipse class="cls-8" cx="82.52" cy="107.59" rx="7.51" ry="7.08"/><ellipse class="cls-8" cx="82.52" cy="107.59" rx="5.63" ry="5.31"/><ellipse class="cls-8" cx="118.46" cy="107.59" rx="17.81" ry="16.77"/><ellipse class="cls-8" cx="118.46" cy="107.59" rx="13.35" ry="12.58"/><ellipse class="cls-8" cx="118.46" cy="107.59" rx="10.02" ry="9.44"/><ellipse class="cls-8" cx="118.46" cy="107.59" rx="7.51" ry="7.08"/><ellipse class="cls-8" cx="118.46" cy="107.59" rx="5.63" ry="5.31"/><ellipse class="cls-8" cx="154.39" cy="107.59" rx="17.81" ry="16.77"/><ellipse class="cls-8" cx="154.39" cy="107.59" rx="13.35" ry="12.58"/><ellipse class="cls-8" cx="154.39" cy="107.59" rx="10.02" ry="9.44"/><ellipse class="cls-8" cx="154.39" cy="107.59" rx="7.51" ry="7.08"/><ellipse class="cls-8" cx="154.39" cy="107.59" rx="5.63" ry="5.31"/><ellipse class="cls-8" cx="190.33" cy="107.59" rx="17.81" ry="16.77"/><ellipse class="cls-8" cx="190.33" cy="107.59" rx="13.35" ry="12.58"/><ellipse class="cls-8" cx="190.33" cy="107.59" rx="10.02" ry="9.44"/><ellipse class="cls-8" cx="190.33" cy="107.59" rx="7.51" ry="7.08"/><ellipse class="cls-8" cx="190.33" cy="107.59" rx="5.63" ry="5.31"/><ellipse class="cls-8" cx="226.14" cy="107.59" rx="17.81" ry="16.77"/><ellipse class="cls-8" cx="226.14" cy="107.59" rx="13.35" ry="12.58"/><ellipse class="cls-8" cx="226.14" cy="107.59" rx="10.02" ry="9.44"/><ellipse class="cls-8" cx="226.14" cy="107.59" rx="7.51" ry="7.08"/><ellipse class="cls-8" cx="226.14" cy="107.59" rx="5.63" ry="5.31"/><path class="cls-9" d="M70.78,83.17l-7.94,9.61a1.7,1.7,0,0,1-.89.57L48.89,96.84a1.75,1.75,0,0,0-1.29,1.78L48,106a1.72,1.72,0,0,0,1.71,1.63l11.86.15a1.78,1.78,0,0,1,1.35.67l7.64,9.82a1.73,1.73,0,0,0,2.32.38l6.65-4.37a1.73,1.73,0,0,0,.7-2L76.83,102a1.72,1.72,0,0,1,0-1.12l4.19-12a1.74,1.74,0,0,0-.8-2.09L73,82.76A1.74,1.74,0,0,0,70.78,83.17Z"/><path class="cls-9" d="M231.15,78c-1.19-.88-4.38-1-8.72-.66l-11.88-7.92-.11,0L208.39,66c5.46-7.34,9-19.38,4-30.43-5.48-12.12-13.54-16.9-17.79-18.1-4.1-1.17-14.77.39-20,1.87-10.05,2.87-15.93,12.89-15.29,22.47.34,5.16,3,7.5,1.56,12.8-1.1,4.13-3.92,7.33-2.5,9.36.68,1,1.69.75,3.44,2.19a10.87,10.87,0,0,1,2.8,3.74c5.92,11.54,6.2,12,6.87,12.49,2.39,1.77,5.94,1.3,10-.15L180.81,85c-2,.46-3.83.9-5.39,1.27l-4.55-4.18-.81.87L153,66l-.47.41-.94-1-4.78,4.06.94,1.06-.52.45.62.64L146.3,73l16.23,16.76a11.84,11.84,0,0,0-.4,1.19l-1.77-1.59s-2.09-.21-3,2.89c1,.94,2.21,2.09,3.28,3.13,0,0,0,0,0,.06-.51,2.56-3.08.21-2.71,4.4s-4.3-.1-4,4.8c2.84,4.12,10.87,10.55,10.87,10.55l4.12-5.71,77.79-1.5S237.08,82.34,231.15,78Z"/><ellipse class="cls-8" cx="65.49" cy="115.14" rx="17.81" ry="16.77"/><ellipse class="cls-8" cx="65.49" cy="115.14" rx="13.35" ry="12.58"/><ellipse class="cls-8" cx="65.49" cy="115.14" rx="10.02" ry="9.44"/><ellipse class="cls-8" cx="65.49" cy="115.14" rx="7.51" ry="7.08"/><ellipse class="cls-8" cx="65.49" cy="115.14" rx="5.63" ry="5.31"/><ellipse class="cls-8" cx="101.43" cy="115.14" rx="17.81" ry="16.77"/><ellipse class="cls-8" cx="101.43" cy="115.14" rx="13.35" ry="12.58"/><ellipse class="cls-8" cx="101.43" cy="115.14" rx="10.02" ry="9.44"/><ellipse class="cls-8" cx="101.43" cy="115.14" rx="7.51" ry="7.08"/><ellipse class="cls-8" cx="101.43" cy="115.14" rx="5.63" ry="5.31"/><ellipse class="cls-8" cx="137.36" cy="115.14" rx="17.81" ry="16.77"/><ellipse class="cls-8" cx="137.36" cy="115.14" rx="13.35" ry="12.58"/><ellipse class="cls-8" cx="137.36" cy="115.14" rx="10.02" ry="9.44"/><ellipse class="cls-8" cx="137.36" cy="115.14" rx="7.51" ry="7.08"/><ellipse class="cls-8" cx="137.36" cy="115.14" rx="5.63" ry="5.31"/><ellipse class="cls-8" cx="173.3" cy="115.14" rx="17.81" ry="16.77"/><ellipse class="cls-8" cx="173.3" cy="115.14" rx="13.35" ry="12.58"/><ellipse class="cls-8" cx="173.3" cy="115.14" rx="10.02" ry="9.44"/><ellipse class="cls-8" cx="173.3" cy="115.14" rx="7.51" ry="7.08"/><ellipse class="cls-8" cx="173.3" cy="115.14" rx="5.63" ry="5.31"/><ellipse class="cls-8" cx="209.23" cy="115.14" rx="17.81" ry="16.77"/><ellipse class="cls-8" cx="209.23" cy="115.14" rx="13.35" ry="12.58"/><ellipse class="cls-8" cx="209.23" cy="115.14" rx="10.02" ry="9.44"/><ellipse class="cls-8" cx="209.23" cy="115.14" rx="7.51" ry="7.08"/><ellipse class="cls-8" cx="209.23" cy="115.14" rx="5.63" ry="5.31"/><ellipse class="cls-8" cx="47.59" cy="126.11" rx="17.81" ry="16.77"/><ellipse class="cls-8" cx="47.59" cy="126.11" rx="13.35" ry="12.58"/><ellipse class="cls-8" cx="47.59" cy="126.11" rx="10.02" ry="9.44"/><ellipse class="cls-8" cx="47.59" cy="126.11" rx="7.51" ry="7.08"/><ellipse class="cls-8" cx="47.59" cy="126.11" rx="5.63" ry="5.31"/><ellipse class="cls-8" cx="83.52" cy="126.11" rx="17.81" ry="16.77"/><ellipse class="cls-8" cx="83.52" cy="126.11" rx="13.35" ry="12.58"/><ellipse class="cls-8" cx="83.52" cy="126.11" rx="10.02" ry="9.44"/><ellipse class="cls-8" cx="83.52" cy="126.11" rx="7.51" ry="7.08"/><ellipse class="cls-8" cx="83.52" cy="126.11" rx="5.63" ry="5.31"/><ellipse class="cls-8" cx="119.46" cy="126.11" rx="17.81" ry="16.77"/><ellipse class="cls-8" cx="119.46" cy="126.11" rx="13.35" ry="12.58"/><ellipse class="cls-8" cx="119.46" cy="126.11" rx="10.02" ry="9.44"/><ellipse class="cls-8" cx="119.46" cy="126.11" rx="7.51" ry="7.08"/><ellipse class="cls-8" cx="119.46" cy="126.11" rx="5.63" ry="5.31"/><ellipse class="cls-8" cx="155.39" cy="126.11" rx="17.81" ry="16.77"/><ellipse class="cls-8" cx="155.39" cy="126.11" rx="13.35" ry="12.58"/><ellipse class="cls-8" cx="155.39" cy="126.11" rx="10.02" ry="9.44"/><ellipse class="cls-8" cx="155.39" cy="126.11" rx="7.51" ry="7.08"/><ellipse class="cls-8" cx="155.39" cy="126.11" rx="5.63" ry="5.31"/><ellipse class="cls-8" cx="191.33" cy="126.11" rx="17.81" ry="16.77"/><ellipse class="cls-8" cx="191.33" cy="126.11" rx="13.35" ry="12.58"/><ellipse class="cls-8" cx="191.33" cy="126.11" rx="10.02" ry="9.44"/><ellipse class="cls-8" cx="191.33" cy="126.11" rx="7.51" ry="7.08"/><ellipse class="cls-8" cx="191.33" cy="126.11" rx="5.63" ry="5.31"/><ellipse class="cls-8" cx="227.14" cy="126.11" rx="17.81" ry="16.77"/><ellipse class="cls-8" cx="227.14" cy="126.11" rx="13.35" ry="12.58"/><ellipse class="cls-8" cx="227.14" cy="126.11" rx="10.02" ry="9.44"/><ellipse class="cls-8" cx="227.14" cy="126.11" rx="7.51" ry="7.08"/><ellipse class="cls-8" cx="227.14" cy="126.11" rx="5.63" ry="5.31"/><ellipse class="cls-8" cx="101.83" cy="115.07" rx="17.81" ry="16.77"/><ellipse class="cls-8" cx="101.83" cy="115.07" rx="13.35" ry="12.58"/><ellipse class="cls-8" cx="101.83" cy="115.07" rx="10.02" ry="9.44"/><ellipse class="cls-8" cx="101.83" cy="115.07" rx="7.51" ry="7.08"/><ellipse class="cls-8" cx="101.83" cy="115.07" rx="5.63" ry="5.31"/><ellipse class="cls-8" cx="137.76" cy="115.07" rx="17.81" ry="16.77"/><ellipse class="cls-8" cx="137.76" cy="115.07" rx="13.35" ry="12.58"/><ellipse class="cls-8" cx="137.76" cy="115.07" rx="10.02" ry="9.44"/><ellipse class="cls-8" cx="137.76" cy="115.07" rx="7.51" ry="7.08"/><ellipse class="cls-8" cx="137.76" cy="115.07" rx="5.63" ry="5.31"/><ellipse class="cls-8" cx="173.7" cy="115.07" rx="17.81" ry="16.77"/><ellipse class="cls-8" cx="173.7" cy="115.07" rx="13.35" ry="12.58"/><ellipse class="cls-8" cx="173.7" cy="115.07" rx="10.02" ry="9.44"/><ellipse class="cls-8" cx="173.7" cy="115.07" rx="7.51" ry="7.08"/><ellipse class="cls-8" cx="173.7" cy="115.07" rx="5.63" ry="5.31"/><ellipse class="cls-8" cx="209.64" cy="115.07" rx="17.81" ry="16.77"/><ellipse class="cls-8" cx="209.64" cy="115.07" rx="13.35" ry="12.58"/><ellipse class="cls-8" cx="209.64" cy="115.07" rx="10.02" ry="9.44"/><ellipse class="cls-8" cx="209.64" cy="115.07" rx="7.51" ry="7.08"/><ellipse class="cls-8" cx="209.64" cy="115.07" rx="5.63" ry="5.31"/><ellipse class="cls-8" cx="245.57" cy="115.07" rx="17.81" ry="16.77"/><ellipse class="cls-8" cx="245.57" cy="115.07" rx="13.35" ry="12.58"/><ellipse class="cls-8" cx="245.57" cy="115.07" rx="10.02" ry="9.44"/><ellipse class="cls-8" cx="245.57" cy="115.07" rx="7.51" ry="7.08"/><ellipse class="cls-8" cx="245.57" cy="115.07" rx="5.63" ry="5.31"/><ellipse class="cls-8" cx="83.93" cy="126.04" rx="17.81" ry="16.77"/><ellipse class="cls-8" cx="83.93" cy="126.04" rx="13.35" ry="12.58"/><ellipse class="cls-8" cx="83.93" cy="126.04" rx="10.02" ry="9.44"/><ellipse class="cls-8" cx="83.93" cy="126.04" rx="7.51" ry="7.08"/><ellipse class="cls-8" cx="83.93" cy="126.04" rx="5.63" ry="5.31"/><ellipse class="cls-8" cx="119.86" cy="126.04" rx="17.81" ry="16.77"/><ellipse class="cls-8" cx="119.86" cy="126.04" rx="13.35" ry="12.58"/><ellipse class="cls-8" cx="119.86" cy="126.04" rx="10.02" ry="9.44"/><ellipse class="cls-8" cx="119.86" cy="126.04" rx="7.51" ry="7.08"/><ellipse class="cls-8" cx="119.86" cy="126.04" rx="5.63" ry="5.31"/><ellipse class="cls-8" cx="155.8" cy="126.04" rx="17.81" ry="16.77"/><ellipse class="cls-8" cx="155.8" cy="126.04" rx="13.35" ry="12.58"/><ellipse class="cls-8" cx="155.8" cy="126.04" rx="10.02" ry="9.44"/><ellipse class="cls-8" cx="155.8" cy="126.04" rx="7.51" ry="7.08"/><ellipse class="cls-8" cx="155.8" cy="126.04" rx="5.63" ry="5.31"/><ellipse class="cls-8" cx="191.73" cy="126.04" rx="17.81" ry="16.77"/><ellipse class="cls-8" cx="191.73" cy="126.04" rx="13.35" ry="12.58"/><ellipse class="cls-8" cx="191.73" cy="126.04" rx="10.02" ry="9.44"/><ellipse class="cls-8" cx="191.73" cy="126.04" rx="7.51" ry="7.08"/><ellipse class="cls-8" cx="191.73" cy="126.04" rx="5.63" ry="5.31"/><ellipse class="cls-8" cx="227.67" cy="126.04" rx="17.81" ry="16.77"/><ellipse class="cls-8" cx="227.67" cy="126.04" rx="13.35" ry="12.58"/><ellipse class="cls-8" cx="227.67" cy="126.04" rx="10.02" ry="9.44"/><ellipse class="cls-8" cx="227.67" cy="126.04" rx="7.51" ry="7.08"/><ellipse class="cls-8" cx="227.67" cy="126.04" rx="5.63" ry="5.31"/><ellipse class="cls-8" cx="263.47" cy="126.04" rx="17.81" ry="16.77"/><ellipse class="cls-8" cx="263.47" cy="126.04" rx="13.35" ry="12.58"/><ellipse class="cls-8" cx="263.47" cy="126.04" rx="10.02" ry="9.44"/><ellipse class="cls-8" cx="263.47" cy="126.04" rx="7.51" ry="7.08"/><ellipse class="cls-8" cx="263.47" cy="126.04" rx="5.63" ry="5.31"/></g><path class="cls-1" d="M225.6,110.9s2.19-10,10.66-14c18.21-8.57,16.42-32.12,16.42-32.12s1.79-23.56-16.42-32.13c-8.47-4-10.61-14.15-10.61-14.15h-171S52.72,28.7,44.24,32.69C26,41.26,27.82,64.82,27.82,64.82S26,88.37,44.24,96.94c8.48,4,10.35,14,10.35,14h171"/><g class="cls-10"><polygon class="cls-3" points="2 -41.62 127.26 98.73 1.25 -40.95 2 -41.62"/><polygon class="cls-3" points="-19.88 -32.21 18.43 151.97 -20.86 -32.01 -19.88 -32.21"/><polygon class="cls-3" points="-12.4 -34.11 57.3 140.62 -13.33 -33.74 -12.4 -34.11"/><polygon class="cls-3" points="-5.38 -37.28 93.61 122.69 -6.22 -36.75 -5.38 -37.28"/><polygon class="cls-3" points="6.52 -47 154.25 69.47 5.9 -46.22 6.52 -47"/><polygon class="cls-3" points="11.02 -53.26 176.74 35.78 10.55 -52.38 11.02 -53.26"/><ellipse class="cls-4" cx="-3.26" cy="-16.71" rx="17.81" ry="16.77"/><ellipse class="cls-4" cx="14.64" cy="-5.74" rx="17.81" ry="16.77"/><ellipse class="cls-4" cx="14.64" cy="-5.74" rx="13.35" ry="12.58"/><ellipse class="cls-4" cx="14.64" cy="-5.74" rx="10.02" ry="9.44"/><ellipse class="cls-4" cx="14.64" cy="-5.74" rx="7.51" ry="7.08"/><ellipse class="cls-4" cx="14.64" cy="-5.74" rx="5.63" ry="5.31"/><ellipse class="cls-4" cx="-2.86" cy="-16.77" rx="17.81" ry="16.77"/><ellipse class="cls-4" cx="33.08" cy="-16.77" rx="17.81" ry="16.77"/><ellipse class="cls-4" cx="15.17" cy="-5.81" rx="17.81" ry="16.77"/><ellipse class="cls-4" cx="15.17" cy="-5.81" rx="13.35" ry="12.58"/><ellipse class="cls-4" cx="15.17" cy="-5.81" rx="10.02" ry="9.44"/><ellipse class="cls-4" cx="15.17" cy="-5.81" rx="7.51" ry="7.08"/><ellipse class="cls-4" cx="15.17" cy="-5.81" rx="5.63" ry="5.31"/><ellipse class="cls-4" cx="50.98" cy="-5.81" rx="17.81" ry="16.77"/><ellipse class="cls-4" cx="50.98" cy="-5.81" rx="13.35" ry="12.58"/><ellipse class="cls-4" cx="50.98" cy="-5.81" rx="10.02" ry="9.44"/><ellipse class="cls-4" cx="50.98" cy="-5.81" rx="7.51" ry="7.08"/><ellipse class="cls-4" cx="50.98" cy="-5.81" rx="5.63" ry="5.31"/></g><path class="cls-1" d="M13.11-20.95s2.18-10,10.66-14C42-43.48,40.19-67,40.19-67S42-90.59,23.77-99.16c-8.48-4-10.61-14.15-10.61-14.15h-171s-1.93,10.17-10.4,14.15C-186.46-90.59-184.67-67-184.67-67s-1.79,23.55,16.42,32.12c8.47,4,10.35,14,10.35,14h171"/></g></svg>